<svg width="249" height="249" viewBox="0 0 249 249" fill="none" xmlns="http://www.w3.org/2000/svg">
<circle cx="124.5" cy="124.5" r="124.5" fill="#8257E5"/>
<path d="M45.5278 110.305V121.479H36.3561V138.115C36.3561 140.102 36.6837 141.564 37.3388 142.502C37.9939 143.385 39.195 143.826 40.942 143.826H45.5278V153.51C44.2176 153.952 42.5252 154.31 40.4506 154.586C38.3761 154.862 36.5745 155 35.0459 155C30.2416 155 26.5292 154.117 23.9087 152.351C21.3428 150.586 20.0599 147.578 20.0599 143.33V121.479H14V110.305H20.715L24.2363 97.0624H36.3561V110.305H45.5278Z" fill="white"/>
<path d="M75.4454 109.312C83.0339 109.312 88.9846 111.271 93.2975 115.189C97.665 119.051 99.8487 124.707 99.8487 132.156C99.8487 139.605 97.665 145.289 93.2975 149.206C88.9846 153.069 83.0339 155 75.4454 155C67.8568 155 61.9061 153.069 57.5932 149.206C53.2803 145.344 51.1239 139.66 51.1239 132.156C51.1239 124.652 53.2803 118.968 57.5932 115.106C61.9061 111.243 67.8568 109.312 75.4454 109.312ZM75.4454 120.486C70.0952 120.486 67.4201 123.603 67.4201 129.839V134.556C67.4201 140.736 70.0952 143.826 75.4454 143.826C80.8501 143.826 83.5525 140.736 83.5525 134.556V129.839C83.5525 123.603 80.8501 120.486 75.4454 120.486Z" fill="white"/>
<path d="M106.432 154.007V137.536H123.793V154.007H106.432Z" fill="white"/>
<path d="M165.066 154.007L163.674 147.799C160.508 152.6 155.922 155 149.916 155C144.075 155 139.571 153.069 136.405 149.206C133.238 145.344 131.655 139.633 131.655 132.073C131.655 124.569 133.238 118.913 136.405 115.106C139.571 111.243 144.075 109.312 149.916 109.312C154.884 109.312 158.924 110.995 162.036 114.361V94H178.332V154.007H165.066ZM154.994 121.479C150.299 121.479 147.951 124.321 147.951 130.004V134.391C147.951 140.019 150.299 142.833 154.994 142.833C157.396 142.833 159.197 141.978 160.398 140.267C161.599 138.557 162.2 136.322 162.2 133.563V130.832C162.2 128.073 161.599 125.838 160.398 124.128C159.197 122.362 157.396 121.479 154.994 121.479Z" fill="white"/>
<path d="M210.597 109.312C218.185 109.312 224.136 111.271 228.449 115.189C232.816 119.051 235 124.707 235 132.156C235 139.605 232.816 145.289 228.449 149.206C224.136 153.069 218.185 155 210.597 155C203.008 155 197.057 153.069 192.745 149.206C188.432 145.344 186.275 139.66 186.275 132.156C186.275 124.652 188.432 118.968 192.745 115.106C197.057 111.243 203.008 109.312 210.597 109.312ZM210.597 120.486C205.246 120.486 202.571 123.603 202.571 129.839V134.556C202.571 140.736 205.246 143.826 210.597 143.826C216.001 143.826 218.704 140.736 218.704 134.556V129.839C218.704 123.603 216.001 120.486 210.597 120.486Z" fill="white"/>
</svg>
